<svg width="120" height="120" viewBox="0 0 120 120" fill="none" xmlns="http://www.w3.org/2000/svg">
  <!-- 背景圆 -->
  <circle cx="60" cy="60" r="58" fill="url(#gradient)" stroke="white" stroke-width="4"/>
  
  <!-- 渐变定义 -->
  <defs>
    <linearGradient id="gradient" x1="0%" y1="0%" x2="100%" y2="100%">
      <stop offset="0%" style="stop-color:#3b82f6;stop-opacity:1" />
      <stop offset="100%" style="stop-color:#8b5cf6;stop-opacity:1" />
    </linearGradient>
    <linearGradient id="textGradient" x1="0%" y1="0%" x2="100%" y2="100%">
      <stop offset="0%" style="stop-color:#ffffff;stop-opacity:1" />
      <stop offset="100%" style="stop-color:#f1f5f9;stop-opacity:1" />
    </linearGradient>
  </defs>
  
  <!-- 字母 N -->
  <path d="M25 30 L25 90 L35 90 L35 55 L55 90 L65 90 L65 30 L55 30 L55 65 L35 30 Z" fill="url(#textGradient)" stroke="none"/>
  
  <!-- 字母 U -->
  <path d="M75 30 L75 65 Q75 80 85 80 Q95 80 95 65 L95 30 L105 30 L105 65 Q105 90 85 90 Q65 90 65 65 L65 30 Z" fill="url(#textGradient)" stroke="none"/>
  
  <!-- 装饰性元素 - 小圆点 -->
  <circle cx="45" cy="45" r="2" fill="rgba(255,255,255,0.6)"/>
  <circle cx="55" cy="50" r="1.5" fill="rgba(255,255,255,0.4)"/>
  <circle cx="75" cy="75" r="2.5" fill="rgba(255,255,255,0.5)"/>
  
  <!-- 底部装饰线 -->
  <path d="M20 95 Q60 100 100 95" stroke="rgba(255,255,255,0.3)" stroke-width="2" fill="none"/>
</svg>